<svg width="689" height="516" xmlns="http://www.w3.org/2000/svg" xml:space="preserve" version="1.1">
 <g>
  <title>Layer 1</title>
  <rect id="svg_1" fill="#F0F0F0" height="18" width="392" class="st0" y="63" x="150"/>
  <polygon id="svg_2" fill="#F0F0F0" points="588,39 588,0 583.3,0 108.6,0 104,0 104,3.9 104,36.1 104,39 108.6,39 583.3,39 " class="st0"/>
  <rect id="svg_3" fill="#F0F0F0" height="18" width="260" class="st0" y="93" x="216"/>
  <rect id="svg_4" fill="#F0F0F0" height="351" width="327" class="st0" y="165" x="362"/>
  <rect id="svg_5" fill="#F0F0F0" height="351" width="327" class="st0" y="165"/>
  <path stroke="null" id="svg_6" d="m10,200l101.00001,0l0,8l-101.00001,0l0,-8z" opacity="undefined" fill="#000000"/>
  <path id="svg_8" d="m266.83497,136.99999" opacity="NaN" fill="#F0F0F0"/>
  <path stroke="null" id="svg_9" d="m10,230l269,0l0,8l-269,0l0,-8z" opacity="undefined" fill="#000000"/>
  <path stroke="null" id="svg_10" d="m10,260l207,0l0,8l-207,0l0,-8z" opacity="undefined" fill="#000000"/>
  <path stroke="null" id="svg_11" d="m374,192.99998l295.99999,0l0,8l-295.99999,0l0,-8z" opacity="undefined" fill="#000000"/>
  <rect id="svg_13" height="124" width="190.99999" y="220" x="429.83497" stroke="null" fill="#999999"/>
  <path stroke="null" id="svg_14" d="m475,360l101.00001,0l0,8l-101.00001,0l0,-8z" opacity="undefined" fill="#000000"/>
  <path stroke="null" id="svg_15" d="m10,330.00001l295.99999,0l0,8l-295.99999,0l0,-8z" opacity="undefined" fill="#000000"/>
  <path stroke="null" id="svg_16" d="m100,289.99999l101.00001,0l0,19l-101.00001,0l0,-19z" opacity="undefined" fill="#DDDDDD"/>
  <path stroke="null" id="svg_19" d="m245,98l199,0l0,8l-199,0l0,-8z" opacity="undefined" fill="#000000"/>
  <path id="svg_7" d="m156.5,14l375.99998,0l0,8l-375.99998,0l0,-8z" opacity="undefined" fill="#000000" stroke="null"/>
 </g>

</svg>